<?xml version="1.0" standalone="no"?>
<!DOCTYPE svg PUBLIC "-//W3C//DTD SVG 20010904//EN"
 "http://www.w3.org/TR/2001/REC-SVG-20010904/DTD/svg10.dtd">
<svg version="1.0" xmlns="http://www.w3.org/2000/svg"
 width="800.000000pt" height="200.000000pt" viewBox="0 0 800.000000 200.000000"
 preserveAspectRatio="xMidYMid meet">
<metadata>
Created by potrace 1.16, written by Peter Selinger 2001-2019
</metadata>
<g transform="translate(0.000000,200.000000) scale(0.100000,-0.100000)"
fill="#000000" stroke="none">
<path d="M3960 1277 c0 -16 31 -47 47 -47 5 0 34 -17 64 -38 70 -49 119 -67
132 -50 7 10 10 10 14 1 6 -15 63 -18 63 -3 0 6 18 10 40 10 22 0 40 -3 40 -7
0 -8 541 -6 548 2 10 10 -30 36 -45 31 -9 -4 -19 -3 -22 2 -8 11 -257 72 -293
72 -16 0 -28 5 -28 11 0 7 -12 10 -30 7 -20 -3 -30 0 -30 9 0 17 -16 17 -24 1
-5 -10 -7 -10 -12 -1 -8 19 -464 18 -464 0z"/>
<path d="M3655 1261 c-2 -4 -43 -14 -90 -21 -78 -12 -85 -15 -85 -36 0 -14 8
-25 20 -29 11 -3 20 -11 20 -16 0 -6 5 -7 10 -4 6 3 10 1 10 -4 0 -6 10 -22
22 -36 20 -23 28 -25 115 -25 60 0 92 4 88 10 -4 6 12 10 40 10 28 0 44 -4 40
-10 -8 -13 8 -13 21 0 5 5 56 11 113 12 l104 3 -24 22 c-58 54 -137 104 -171
110 -21 3 -38 9 -38 14 0 10 -188 10 -195 0z"/>
<path d="M4520 1121 c0 -7 22 -11 59 -11 34 0 63 -5 67 -11 5 -8 10 -6 16 5 5
9 14 14 19 11 5 -4 6 -11 3 -17 -4 -6 13 -9 50 -6 31 1 58 -1 61 -7 3 -6 7 -5
11 3 3 6 10 12 15 12 6 0 7 -4 4 -10 -4 -6 14 -10 47 -11 29 -1 58 -2 63 -3 6
-1 44 -6 85 -11 68 -8 72 -9 43 -17 -20 -5 -33 -15 -33 -25 0 -14 -2 -14 -20
2 -11 10 -20 14 -20 8 0 -5 12 -16 26 -24 15 -8 42 -29 59 -46 29 -29 39 -33
89 -33 53 0 56 1 56 24 0 33 10 57 22 50 5 -4 5 -11 -2 -19 -12 -14 -3 -48 11
-39 5 3 9 14 9 25 0 19 1 19 16 5 24 -25 54 -38 70 -32 9 3 28 -7 46 -26 24
-25 32 -28 40 -17 7 11 11 11 15 2 3 -10 44 -13 155 -13 l151 0 -6 35 c-7 43
7 46 25 5 13 -31 48 -42 48 -15 0 8 -4 15 -10 15 -5 0 -10 7 -10 15 0 20 -52
66 -68 60 -8 -3 -20 2 -28 10 -9 8 -26 15 -39 15 -13 0 -28 7 -33 16 -5 10
-28 18 -55 21 -26 3 -47 10 -47 15 0 6 -13 8 -30 6 -16 -3 -30 -1 -30 4 0 5
-6 8 -12 7 -12 -3 -148 8 -223 17 -16 2 -184 7 -372 10 -254 5 -343 4 -343 -5z"/>
<path d="M4832 1038 c-20 -20 -13 -46 19 -69 54 -38 169 -39 169 -1 0 49 -153
105 -188 70z"/>
<path d="M4470 952 c0 -5 12 -15 26 -22 14 -8 28 -26 31 -42 3 -15 9 -28 14
-28 5 0 9 -34 9 -75 0 -41 -4 -75 -9 -75 -5 0 -12 -14 -16 -31 -8 -35 -37 -69
-59 -69 -8 0 -18 -4 -21 -10 -3 -5 -15 -10 -26 -10 -28 0 -19 -24 11 -28 12
-2 27 2 31 10 7 10 9 10 9 1 0 -10 26 -13 100 -11 55 1 100 5 100 9 0 4 14 16
30 26 44 26 39 46 -10 41 -39 -3 -40 -3 -40 29 0 23 -5 33 -15 33 -12 0 -15
16 -15 81 0 51 -4 78 -10 74 -5 -3 -10 2 -10 13 0 25 -78 92 -107 92 -13 0
-23 -4 -23 -8z"/>
<path d="M4683 718 c8 -62 35 -79 120 -76 37 2 69 -1 72 -7 3 -6 7 -5 11 3 7
14 54 16 54 2 0 -15 642 -14 658 2 8 8 15 8 27 -2 8 -7 15 -8 15 -3 0 6 24 8
56 5 41 -3 59 -1 65 9 7 12 9 12 9 0 0 -9 4 -10 13 -3 6 5 31 13 55 17 40 6
42 9 42 41 0 30 -3 34 -25 34 -14 0 -25 -4 -25 -10 0 -5 -7 -7 -15 -4 -8 4
-22 1 -29 -5 -11 -9 -15 -9 -19 1 -4 10 -8 10 -16 -2 -9 -13 -62 -15 -373 -15
l-363 0 -36 28 c-35 26 -39 27 -169 27 l-133 0 6 -42z"/>
</g>
</svg>
